.
 
http://www.scenetime.com    -  Hottest private tracker on the net. !!!

New release on http://www.scenetime.com

        Seed back for speed


...................................NFO:.................................................[IMG]http://img28.imageshack.us/img28/2527/1580672h.jpg[/IMG]


[color=blue][size=5][b]Good.Neighbors.2010.BDRip.XVID.AC3.HQ.Hive-CM8[/b][/size][/color]


[b]Thx Hive

CM8 Doing It Right The First Time :D


Source: Bluray

Video: 720x304 @bitrate 1650 2pass
Audio: English DTS to AC3 5.1 @448
Sample: yes, included[/b]


[url]http://www.imdb.com/title/tt1576440/[/url]


General
Complete name                    : Good.Neighbors.2010.BDRip.XVID.AC3.HQ.Hive-CM8.avi
Format                           : AVI
Format/Info                      : Audio Video Interleave
File size                        : 1.46 GiB
Duration                         : 1h 38mn
Overall bit rate                 : 2 108 Kbps
Writing application              : Nandub v1.0rc2
Writing library                  : Nandub build 1853/release

Video
ID                               : 0
Format                           : MPEG-4 Visual
Format profile                   : Advanced Simple@L5
Format settings, BVOP            : 1
Format settings, QPel            : Yes
Format settings, GMC             : No warppoints
Format settings, Matrix          : Default (H.263)
Muxing mode                      : Packed bitstream
Codec ID                         : XVID
Codec ID/Hint                    : XviD
Duration                         : 1h 38mn
Bit rate                         : 1 650 Kbps
Width                            : 720 pixels
Height                           : 304 pixels
Display aspect ratio             : 2.35:1
Frame rate                       : 23.976 fps
Color space                      : YUV
Chroma subsampling               : 4:2:0
Bit depth                        : 8 bits
Scan type                        : Progressive
Compression mode                 : Lossy
Bits/(Pixel*Frame)               : 0.314
Stream size                      : 1.14 GiB (78%)
Writing library                  : XviD 1.2.1 (UTC 2008-12-04)

Audio
ID                               : 1
Format                           : AC-3
Format/Info                      : Audio Coding 3
Mode extension                   : CM (complete main)
Codec ID                         : 2000
Duration                         : 1h 38mn
Bit rate mode                    : Constant
Bit rate                         : 448 Kbps
Channel(s)                       : 6 channels
Channel positions                : Front: L C R, Side: L R, LFE
Sampling rate                    : 48.0 KHz
Bit depth                        : 16 bits
Compression mode                 : Lossy
Stream size                      : 317 MiB (21%)
Alignment                        : Split accross interleaves
Interleave, duration             : 42 ms (1.00 video frame)
Interleave, preload duration     : 500 ms


Plot:
Victor is new to Montreal and attempts to make friends with the wheelchair-bound
Spencer and the cat-loving Louise, but everybody is on edge with a serial killer
terrorizing the neighborhood.


Cast:
Jay Baruchel     ...     Victor
Scott Speedman   ...     Spencer
Xavier Dolan     ...     Jean-Marc
Emily Hampshire  ...     Louise
Gary Farmer      ...     Brandt


[img]http://img405.imageshack.us/img405/7193/94825825.png[/img]
[img]http://img31.imageshack.us/img31/4141/gogob.png[/img]
[img]http://img717.imageshack.us/img717/9568/gogogor.png[/img]
[img]http://img191.imageshack.us/img191/8277/gogogogoj.png[/img]



Greetz

ViSiON,SiC,SANTi,3LT0N,YanKeeS,MAGNET,THC,T0XiC,LKRG,FANTASIA-PLAY,FANTASIA-M,FLAWL3SS,
D2U,WBZ,BHRG,NOVA,Vik,Rapeseed,SAFC,goldadvance,MEMORY100,KaN1vE,Unevano,Pinnz,Wayne
Mr Hive,cedrict wink,and all P2P groups
Great Work Guys :D

LOOKING FOR ANYTHING YOU WANT TO LOOK AND SOUND BETTER

CM8@hushmail.com